<svg width="17" height="11" viewBox="0 0 17 11" fill="none" xmlns="http://www.w3.org/2000/svg">
<path d="M8.65547 0.899999L5.53347 5.45L8.65547 10H7.12947L4.77747 6.556L2.41147 10H0.885469L4.00747 5.45L0.885469 0.899999H2.41147L4.77747 4.344L7.12947 0.899999H8.65547ZM9.36531 8.026L10.4293 7.298C10.7373 8.026 11.8573 8.852 13.2993 8.852C14.6993 8.852 15.2453 8.32 15.2453 7.438C15.2453 6.388 13.5793 6.122 12.8093 5.884C11.9833 5.646 9.70131 5.24 9.70131 3.336C9.70131 1.544 11.2413 0.731999 13.1593 0.731999C14.8673 0.731999 16.2393 1.614 16.5893 2.594L15.5253 3.252C15.2733 2.65 14.2793 2.048 13.0193 2.048C11.8293 2.048 11.1853 2.496 11.1853 3.266C11.1853 4.26 12.7253 4.498 13.5653 4.736C14.3213 4.974 16.7013 5.478 16.7013 7.382C16.7013 9.202 15.3433 10.168 13.1593 10.168C11.1573 10.168 9.81331 9.174 9.36531 8.026Z" fill="#3C4242"/>
</svg>
